<svg width="260" height="234" viewBox="0 0 260 234" fill="none" xmlns="http://www.w3.org/2000/svg">
<path d="M13 0H247C254.18 0 260 5.82036 260 13V221C260 228.18 254.18 234 247 234H13C5.82036 234 0 228.18 0 221V13C0 5.82036 5.82036 0 13 0ZM188.039 162.961L234 117L188.039 71.0381L169.654 89.4228L197.231 117L169.654 144.577L188.039 162.961ZM62.7696 117L90.3467 89.4228L71.9619 71.0381L26 117L71.9619 162.961L90.3467 144.577L62.7696 117ZM120.176 182L167.492 52H139.824L92.5076 182H120.176Z" fill="black"/>
</svg>
